<mxfile host="app.diagrams.net" modified="2024-04-28T08:44:04.142Z" agent="Mozilla/5.0 (Windows NT 10.0; Win64; x64) AppleWebKit/537.36 (KHTML, like Gecko) Chrome/124.0.0.0 Safari/537.36" version="24.2.7" etag="_CgLwqqp9zO4xDXvFAXo" type="github">
  <diagram name="第 1 页" id="HvXHkVopZw5kXoMozp-y">
    <mxGraphModel>
      <root>
        <mxCell id="0" />
        <mxCell id="1" parent="0" />
      </root>
    </mxGraphModel>
  </diagram>
</mxfile>
